<?xml version="1.0" standalone="yes"?>

<svg version="1.1" viewBox="0.0 0.0 586.8372703412074 470.5223097112861" fill="none" stroke="none" stroke-linecap="square" stroke-miterlimit="10" xmlns="http://www.w3.org/2000/svg" xmlns:xlink="http://www.w3.org/1999/xlink"><clipPath id="p.0"><path d="m0 0l586.8373 0l0 470.5223l-586.8373 0l0 -470.5223z" clip-rule="nonzero"></path></clipPath><g clip-path="url(#p.0)"><path fill="#000000" fill-opacity="0.0" d="m0 0l586.8373 0l0 470.5223l-586.8373 0z" fill-rule="nonzero"></path><path fill="#000000" fill-opacity="0.0" d="m635.9055 316.53543l19.748047 0l0 13.228363l-19.748047 0z" fill-rule="nonzero"></path><path fill="#000000" fill-opacity="0.0" d="m584.8504 434.75592l-545.10236 -0.56695557" fill-rule="nonzero"></path><path stroke="#000000" stroke-width="4.0" stroke-linejoin="round" stroke-linecap="butt" d="m560.8504 434.73093l-521.10236 -0.54196167" fill-rule="evenodd"></path><path fill="#000000" stroke="#000000" stroke-width="4.0" stroke-linecap="butt" d="m560.8435 441.33786l18.159302 -6.588043l-18.145508 -6.6257935z" fill-rule="evenodd"></path><path fill="#cfe2f3" d="m449.37268 446.56955l22.085266 0l0 19.84253l-22.085266 0z" fill-rule="nonzero"></path><path stroke="#000000" stroke-width="1.0" stroke-linejoin="round" stroke-linecap="butt" d="m449.37268 446.56955l22.085266 0l0 19.84253l-22.085266 0z" fill-rule="nonzero"></path><path fill="#000000" fill-opacity="0.0" d="m464.57217 436.48032l91.1705 0l0 33.007874l-91.1705 0z" fill-rule="nonzero"></path><path fill="#000000" d="m483.60342 455.4003l-8.96875 0l0 -1.5625l8.96875 0l0 1.5625zm0 4.125l-8.96875 0l0 -1.546875l8.96875 0l0 1.546875zm10.968903 3.875l0 -12.0l-4.46875 0l0 -1.59375l10.765625 0l0 1.59375l-4.5 0l0 12.0l-1.796875 0zm14.161591 -1.21875q-0.9375 0.796875 -1.796875 1.125q-0.859375 0.3125 -1.84375 0.3125q-1.609375 0 -2.484375 -0.78125q-0.875 -0.796875 -0.875 -2.03125q0 -0.734375 0.328125 -1.328125q0.328125 -0.59375 0.859375 -0.953125q0.53125 -0.359375 1.203125 -0.546875q0.5 -0.140625 1.484375 -0.25q2.03125 -0.25 2.984375 -0.578125q0 -0.34375 0 -0.4375q0 -1.015625 -0.46875 -1.4375q-0.640625 -0.5625 -1.90625 -0.5625q-1.171875 0 -1.734375 0.40625q-0.5625 0.40625 -0.828125 1.46875l-1.640625 -0.234375q0.234375 -1.046875 0.734375 -1.6875q0.515625 -0.640625 1.46875 -0.984375q0.96875 -0.359375 2.25 -0.359375q1.265625 0 2.046875 0.296875q0.78125 0.296875 1.15625 0.75q0.375 0.453125 0.515625 1.140625q0.09375 0.421875 0.09375 1.53125l0 2.234375q0 2.328125 0.09375 2.953125q0.109375 0.609375 0.4375 1.171875l-1.75 0q-0.265625 -0.515625 -0.328125 -1.21875zm-0.140625 -3.71875q-0.90625 0.359375 -2.734375 0.625q-1.03125 0.140625 -1.453125 0.328125q-0.421875 0.1875 -0.65625 0.546875q-0.234375 0.359375 -0.234375 0.796875q0 0.671875 0.5 1.125q0.515625 0.4375 1.484375 0.4375q0.96875 0 1.71875 -0.421875q0.75 -0.4375 1.109375 -1.15625q0.265625 -0.578125 0.265625 -1.671875l0 -0.609375zm4.063202 4.9375l0 -9.859375l1.5 0l0 1.5q0.578125 -1.046875 1.0625 -1.375q0.484375 -0.34375 1.078125 -0.34375q0.84375 0 1.71875 0.546875l-0.578125 1.546875q-0.609375 -0.359375 -1.234375 -0.359375q-0.546875 0 -0.984375 0.328125q-0.421875 0.328125 -0.609375 0.90625q-0.28125 0.890625 -0.28125 1.953125l0 5.15625l-1.671875 0zm5.9314575 0.8125l1.609375 0.25q0.109375 0.75 0.578125 1.09375q0.609375 0.453125 1.6875 0.453125q1.171875 0 1.796875 -0.46875q0.625 -0.453125 0.859375 -1.28125q0.125 -0.515625 0.109375 -2.15625q-1.09375 1.296875 -2.71875 1.296875q-2.03125 0 -3.15625 -1.46875q-1.109375 -1.46875 -1.109375 -3.515625q0 -1.40625 0.515625 -2.59375q0.515625 -1.203125 1.484375 -1.84375q0.96875 -0.65625 2.265625 -0.65625q1.75 0 2.875 1.40625l0 -1.1875l1.546875 0l0 8.515625q0 2.3125 -0.46875 3.265625q-0.46875 0.96875 -1.484375 1.515625q-1.015625 0.5625 -2.5 0.5625q-1.765625 0 -2.859375 -0.796875q-1.078125 -0.796875 -1.03125 -2.390625zm1.375 -5.921875q0 1.953125 0.765625 2.84375q0.78125 0.890625 1.9375 0.890625q1.140625 0 1.921875 -0.890625q0.78125 -0.890625 0.78125 -2.78125q0 -1.8125 -0.8125 -2.71875q-0.796875 -0.921875 -1.921875 -0.921875q-1.109375 0 -1.890625 0.90625q-0.78125 0.890625 -0.78125 2.671875zm16.047607 1.9375l1.71875 0.21875q-0.40625 1.5 -1.515625 2.34375q-1.09375 0.828125 -2.8125 0.828125q-2.15625 0 -3.421875 -1.328125q-1.265625 -1.328125 -1.265625 -3.734375q0 -2.484375 1.265625 -3.859375q1.28125 -1.375 3.328125 -1.375q1.984375 0 3.234375 1.34375q1.25 1.34375 1.25 3.796875q0 0.140625 -0.015625 0.4375l-7.34375 0q0.09375 1.625 0.921875 2.484375q0.828125 0.859375 2.0625 0.859375q0.90625 0 1.546875 -0.46875q0.65625 -0.484375 1.046875 -1.546875zm-5.484375 -2.703125l5.5 0q-0.109375 -1.234375 -0.625 -1.859375q-0.796875 -0.96875 -2.078125 -0.96875q-1.140625 0 -1.9375 0.78125q-0.78125 0.765625 -0.859375 2.046875zm12.766296 4.375l0.234375 1.484375q-0.703125 0.140625 -1.265625 0.140625q-0.90625 0 -1.40625 -0.28125q-0.5 -0.296875 -0.703125 -0.75q-0.203125 -0.46875 -0.203125 -1.984375l0 -5.65625l-1.234375 0l0 -1.3125l1.234375 0l0 -2.4375l1.65625 -1.0l0 3.4375l1.6875 0l0 1.3125l-1.6875 0l0 5.75q0 0.71875 0.078125 0.921875q0.09375 0.203125 0.296875 0.328125q0.203125 0.125 0.578125 0.125q0.265625 0 0.734375 -0.078125z" fill-rule="nonzero"></path><path fill="#cfe2f3" d="m460.0125 40.732285l24.639618 0l0 19.842522l-24.639618 0z" fill-rule="nonzero"></path><path stroke="#000000" stroke-width="1.0" stroke-linejoin="round" stroke-linecap="butt" d="m460.0125 40.732285l24.639618 0l0 19.842522l-24.639618 0z" fill-rule="nonzero"></path><path fill="#000000" fill-opacity="0.0" d="m317.83365 1.0157491l0 426.14175" fill-rule="nonzero"></path><path stroke="#000000" stroke-width="4.0" stroke-linejoin="round" stroke-linecap="butt" d="m317.83365 25.015749l0 378.14172" fill-rule="evenodd"></path><path fill="#000000" stroke="#000000" stroke-width="4.0" stroke-linecap="butt" d="m324.44058 25.015749l-6.6069336 -18.152391l-6.6069336 18.152391z" fill-rule="evenodd"></path><path fill="#000000" stroke="#000000" stroke-width="4.0" stroke-linecap="butt" d="m311.2267 403.15747l6.6069336 18.152405l6.6069336 -18.152405z" fill-rule="evenodd"></path><path fill="#000000" fill-opacity="0.0" d="m583.6822 214.08661l-531.6971 0" fill-rule="nonzero"></path><path stroke="#000000" stroke-width="4.0" stroke-linejoin="round" stroke-linecap="butt" d="m559.6822 214.08661l-483.69708 0" fill-rule="evenodd"></path><path fill="#000000" stroke="#000000" stroke-width="4.0" stroke-linecap="butt" d="m559.6822 220.69354l18.152344 -6.6069336l-18.152344 -6.6069183z" fill-rule="evenodd"></path><path fill="#000000" stroke="#000000" stroke-width="4.0" stroke-linecap="butt" d="m75.98511 207.47969l-18.15239 6.6069183l18.15239 6.6069336z" fill-rule="evenodd"></path><path fill="#000000" fill-opacity="0.0" d="m527.09357 151.18898l56.588623 0l0 56.692917l-56.588623 0z" fill-rule="nonzero"></path><path fill="#000000" d="m536.32794 190.90898l6.0625 -8.625l-5.609375 -7.96875l3.515625 0l2.546875 3.890625q0.71875 1.109375 1.15625 1.859375q0.6875 -1.03125 1.265625 -1.828125l2.796875 -3.921875l3.359375 0l-5.734375 7.8125l6.171875 8.78125l-3.453125 0l-3.40625 -5.15625l-0.90625 -1.390625l-4.359375 6.546875l-3.40625 0z" fill-rule="nonzero"></path><path fill="#000000" fill-opacity="0.0" d="m51.985123 151.18898l63.780067 0l0 56.692917l-63.780067 0z" fill-rule="nonzero"></path><path fill="#000000" d="m62.000748 184.03398l0 -2.828125l8.640625 0l0 2.828125l-8.640625 0zm9.875 6.875l6.0625 -8.625l-5.609375 -7.96875l3.515625 0l2.546875 3.890625q0.71875 1.109375 1.15625 1.859375q0.6875 -1.03125 1.265625 -1.828125l2.796875 -3.921875l3.359375 0l-5.734375 7.8125l6.171875 8.78125l-3.453125 0l-3.40625 -5.15625l-0.90625 -1.390625l-4.359375 6.546875l-3.40625 0z" fill-rule="nonzero"></path><path fill="#000000" fill-opacity="0.0" d="m336.22495 1.0157491l56.588593 0l0 56.692913l-56.588593 0z" fill-rule="nonzero"></path><path fill="#000000" d="m347.20932 47.126377l-0.3125 -2.640625q0.921875 0.25 1.609375 0.25q0.9375 0 1.5 -0.3125q0.5625 -0.3125 0.921875 -0.875q0.265625 -0.421875 0.859375 -2.09375q0.078125 -0.234375 0.25 -0.6875l-6.296875 -16.625002l3.03125 0l3.453125 9.609377q0.671875 1.828125 1.203125 3.84375q0.484375 -1.9375 1.15625 -3.78125l3.546875 -9.671877l2.8125 0l-6.3125 16.875002q-1.015625 2.734375 -1.578125 3.765625q-0.75 1.390625 -1.71875 2.03125q-0.96875 0.65625 -2.3125 0.65625q-0.8125 0 -1.8125 -0.34375z" fill-rule="nonzero"></path><path fill="#000000" fill-opacity="0.0" d="m336.22495 370.46457l63.78006 0l0 56.6929l-63.78006 0z" fill-rule="nonzero"></path><path fill="#000000" d="m346.24057 403.30957l0 -2.828125l8.640625 0l0 2.828125l-8.640625 0zm11.625 13.265625l-0.3125 -2.640625q0.921875 0.25 1.609375 0.25q0.9375 0 1.5 -0.3125q0.5625 -0.3125 0.921875 -0.875q0.265625 -0.421875 0.859375 -2.09375q0.078125 -0.234375 0.25 -0.6875l-6.296875 -16.625l3.03125 0l3.453125 9.609375q0.671875 1.828125 1.203125 3.84375q0.484375 -1.9375 1.15625 -3.78125l3.546875 -9.671875l2.8125 0l-6.3125 16.875q-1.015625 2.734375 -1.578125 3.765625q-0.75 1.390625 -1.71875 2.03125q-0.96875 0.65625 -2.3125 0.65625q-0.8125 0 -1.8125 -0.34375z" fill-rule="nonzero"></path><path fill="#000000" fill-opacity="0.0" d="m51.985123 425.26773l0 -424.25198" fill-rule="nonzero"></path><path stroke="#000000" stroke-width="1.0" stroke-linejoin="round" stroke-linecap="butt" stroke-dasharray="8.0,3.0" d="m51.985123 425.26773l0 -424.25198" fill-rule="nonzero"></path><path fill="#000000" fill-opacity="0.0" d="m583.6822 426.2126l0 -424.25195" fill-rule="nonzero"></path><path stroke="#000000" stroke-width="1.0" stroke-linejoin="round" stroke-linecap="butt" stroke-dasharray="8.0,3.0" d="m583.6822 426.2126l0 -424.25195" fill-rule="nonzero"></path><path fill="#000000" fill-opacity="0.0" d="m584.979 1.0157491l-531.6971 0" fill-rule="nonzero"></path><path stroke="#000000" stroke-width="1.0" stroke-linejoin="round" stroke-linecap="butt" stroke-dasharray="8.0,3.0" d="m584.979 1.0157491l-531.6971 0" fill-rule="nonzero"></path><path fill="#000000" fill-opacity="0.0" d="m583.6822 425.26773l-530.4002 0" fill-rule="nonzero"></path><path stroke="#000000" stroke-width="1.0" stroke-linejoin="round" stroke-linecap="butt" stroke-dasharray="8.0,3.0" d="m583.6822 425.26773l-530.4002 0" fill-rule="nonzero"></path><path fill="#000000" fill-opacity="0.0" d="m51.985123 1.0157491l86.17972 0l0 96.409454l-86.17972 0z" fill-rule="nonzero"></path><path fill="#000000" d="m88.62578 37.032627l0 -6.281252l-6.234375 0l0 -2.625l6.234375 0l0 -6.234375l2.65625 0l0 6.234375l6.234375 0l0 2.625l-6.234375 0l0 6.281252l-2.65625 0z" fill-rule="nonzero"></path><path fill="#000000" d="m117.06328 37.188877q-0.21875 1.90625 -0.9375 2.953125q-0.703125 1.046875 -1.71875 1.046875q-0.765625 0 -1.25 -0.859375q-0.484375 -0.875 -0.703125 -2.609375q-0.84375 1.734375 -2.21875 2.609375q-1.375 0.859375 -3.296875 0.859375q-2.640625 0 -4.171875 -2.0625q-1.515625 -2.0625 -1.515625 -5.6875q0 -2.468752 0.75 -4.250002q0.765625 -1.796875 2.125 -2.71875q1.359375 -0.9375 2.890625 -0.9375q1.609375 0 2.765625 1.265625q1.15625 1.265625 1.875 3.796875l0.984375 -4.703125l2.6875 0q-1.734375 8.062502 -1.921875 8.765627l-0.546875 1.921875q0 0.03125 0.15625 0.84375q0.171875 0.8125 0.609375 1.34375q0.4375 0.53125 1.15625 0.53125q0.625 0 1.03125 -0.40625q0.421875 -0.40625 0.640625 -1.703125l0.609375 0zm-5.734375 -5.125q-0.90625 -3.093752 -1.875 -4.359377q-0.96875 -1.265625 -2.15625 -1.265625q-1.390625 0 -2.21875 1.8125q-0.828125 1.796875 -0.828125 5.343752q0 3.546875 0.734375 5.078125q0.75 1.515625 2.125 1.515625q1.109375 0 1.96875 -1.15625q0.875 -1.171875 1.671875 -4.53125l0.578125 -2.4375z" fill-rule="nonzero"></path><path fill="#000000" d="m118.65703 52.735752l3.96875 -5.65625l-3.671875 -5.234375l2.3125 0l1.671875 2.546875q0.46875 0.734375 0.75 1.234375q0.453125 -0.6875 0.828125 -1.203125l1.84375 -2.578125l2.203125 0l-3.765625 5.125l4.046875 5.765625l-2.265625 0l-2.234375 -3.390625l-0.59375 -0.90625l-2.859375 4.296875l-2.234375 0z" fill-rule="nonzero"></path><path fill="#000000" d="m88.62578 75.03262l0 -6.28125l-6.234375 0l0 -2.625l6.234375 0l0 -6.234371l2.65625 0l0 6.234371l6.234375 0l0 2.625l-6.234375 0l0 6.28125l-2.65625 0z" fill-rule="nonzero"></path><path fill="#000000" d="m117.06328 75.18887q-0.21875 1.90625 -0.9375 2.953125q-0.703125 1.046875 -1.71875 1.046875q-0.765625 0 -1.25 -0.859375q-0.484375 -0.875 -0.703125 -2.609375q-0.84375 1.734375 -2.21875 2.609375q-1.375 0.859375 -3.296875 0.859375q-2.640625 0 -4.171875 -2.0625q-1.515625 -2.0625 -1.515625 -5.6875q0 -2.46875 0.75 -4.25q0.765625 -1.796875 2.125 -2.71875q1.359375 -0.9374962 2.890625 -0.9374962q1.609375 0 2.765625 1.2656212q1.15625 1.265625 1.875 3.796875l0.984375 -4.703121l2.6875 0q-1.734375 8.062496 -1.921875 8.765621l-0.546875 1.921875q0 0.03125 0.15625 0.84375q0.171875 0.8125 0.609375 1.34375q0.4375 0.53125 1.15625 0.53125q0.625 0 1.03125 -0.40625q0.421875 -0.40625 0.640625 -1.703125l0.609375 0zm-5.734375 -5.125q-0.90625 -3.09375 -1.875 -4.359375q-0.96875 -1.265625 -2.15625 -1.265625q-1.390625 0 -2.21875 1.8125q-0.828125 1.796875 -0.828125 5.34375q0 3.546875 0.734375 5.078125q0.75 1.515625 2.125 1.515625q1.109375 0 1.96875 -1.15625q0.875 -1.171875 1.671875 -4.53125l0.578125 -2.4375z" fill-rule="nonzero"></path><path fill="#000000" d="m119.79765 94.92325l-0.203125 -1.71875q0.609375 0.15625 1.0625 0.15625q0.609375 0 0.96875 -0.203125q0.375 -0.203125 0.625 -0.578125q0.171875 -0.28125 0.5625 -1.375q0.046875 -0.15625 0.15625 -0.453125l-4.125 -10.90625l1.984375 0l2.265625 6.3125q0.4375 1.1875 0.796875 2.515625q0.3125 -1.265625 0.75 -2.484375l2.328125 -6.34375l1.84375 0l-4.140625 11.078125q-0.671875 1.796875 -1.03125 2.46875q-0.5 0.90625 -1.140625 1.328125q-0.625 0.4375 -1.515625 0.4375q-0.53125 0 -1.1875 -0.234375z" fill-rule="nonzero"></path><path fill="#000000" fill-opacity="0.0" d="m497.50244 1.0157491l86.17975 0l0 96.409454l-86.17975 0z" fill-rule="nonzero"></path><path fill="#000000" d="m534.1431 37.032627l0 -6.281252l-6.234375 0l0 -2.625l6.234375 0l0 -6.234375l2.65625 0l0 6.234375l6.234375 0l0 2.625l-6.234375 0l0 6.281252l-2.65625 0z" fill-rule="nonzero"></path><path fill="#000000" d="m562.5806 37.188877q-0.21875 1.90625 -0.9375 2.953125q-0.703125 1.046875 -1.71875 1.046875q-0.765625 0 -1.25 -0.859375q-0.484375 -0.875 -0.703125 -2.609375q-0.84375 1.734375 -2.21875 2.609375q-1.375 0.859375 -3.296875 0.859375q-2.640625 0 -4.171875 -2.0625q-1.515625 -2.0625 -1.515625 -5.6875q0 -2.468752 0.75 -4.250002q0.765625 -1.796875 2.125 -2.71875q1.359375 -0.9375 2.890625 -0.9375q1.609375 0 2.765625 1.265625q1.15625 1.265625 1.875 3.796875l0.984375 -4.703125l2.6875 0q-1.734375 8.062502 -1.921875 8.765627l-0.546875 1.921875q0 0.03125 0.15625 0.84375q0.171875 0.8125 0.609375 1.34375q0.4375 0.53125 1.15625 0.53125q0.625 0 1.03125 -0.40625q0.421875 -0.40625 0.640625 -1.703125l0.609375 0zm-5.734375 -5.125q-0.90625 -3.093752 -1.875 -4.359377q-0.96875 -1.265625 -2.15625 -1.265625q-1.390625 0 -2.21875 1.8125q-0.828125 1.796875 -0.828125 5.343752q0 3.546875 0.734375 5.078125q0.75 1.515625 2.125 1.515625q1.109375 0 1.96875 -1.15625q0.875 -1.171875 1.671875 -4.53125l0.578125 -2.4375z" fill-rule="nonzero"></path><path fill="#000000" d="m564.1744 52.735752l3.96875 -5.65625l-3.671875 -5.234375l2.3125 0l1.671875 2.546875q0.46875 0.734375 0.75 1.234375q0.453125 -0.6875 0.828125 -1.203125l1.84375 -2.578125l2.203125 0l-3.765625 5.125l4.046875 5.765625l-2.265625 0l-2.234375 -3.390625l-0.59375 -0.90625l-2.859375 4.296875l-2.234375 0z" fill-rule="nonzero"></path><path fill="#000000" d="m535.1744 71.86075l0 -2.828125l8.640625 0l0 2.828125l-8.640625 0z" fill-rule="nonzero"></path><path fill="#000000" d="m562.5806 75.18887q-0.21875 1.90625 -0.9375 2.953125q-0.703125 1.046875 -1.71875 1.046875q-0.765625 0 -1.25 -0.859375q-0.484375 -0.875 -0.703125 -2.609375q-0.84375 1.734375 -2.21875 2.609375q-1.375 0.859375 -3.296875 0.859375q-2.640625 0 -4.171875 -2.0625q-1.515625 -2.0625 -1.515625 -5.6875q0 -2.46875 0.75 -4.25q0.765625 -1.796875 2.125 -2.71875q1.359375 -0.9374962 2.890625 -0.9374962q1.609375 0 2.765625 1.2656212q1.15625 1.265625 1.875 3.796875l0.984375 -4.703121l2.6875 0q-1.734375 8.062496 -1.921875 8.765621l-0.546875 1.921875q0 0.03125 0.15625 0.84375q0.171875 0.8125 0.609375 1.34375q0.4375 0.53125 1.15625 0.53125q0.625 0 1.03125 -0.40625q0.421875 -0.40625 0.640625 -1.703125l0.609375 0zm-5.734375 -5.125q-0.90625 -3.09375 -1.875 -4.359375q-0.96875 -1.265625 -2.15625 -1.265625q-1.390625 0 -2.21875 1.8125q-0.828125 1.796875 -0.828125 5.34375q0 3.546875 0.734375 5.078125q0.75 1.515625 2.125 1.515625q1.109375 0 1.96875 -1.15625q0.875 -1.171875 1.671875 -4.53125l0.578125 -2.4375z" fill-rule="nonzero"></path><path fill="#000000" d="m565.315 94.92325l-0.203125 -1.71875q0.609375 0.15625 1.0625 0.15625q0.609375 0 0.96875 -0.203125q0.375 -0.203125 0.625 -0.578125q0.171875 -0.28125 0.5625 -1.375q0.046875 -0.15625 0.15625 -0.453125l-4.125 -10.90625l1.984375 0l2.265625 6.3125q0.4375 1.1875 0.796875 2.515625q0.3125 -1.265625 0.75 -2.484375l2.328125 -6.34375l1.84375 0l-4.140625 11.078125q-0.671875 1.796875 -1.03125 2.46875q-0.5 0.90625 -1.140625 1.328125q-0.625 0.4375 -1.515625 0.4375q-0.53125 0 -1.1875 -0.234375z" fill-rule="nonzero"></path><path fill="#000000" fill-opacity="0.0" d="m51.985123 330.74805l86.17972 0l0 96.409424l-86.17972 0z" fill-rule="nonzero"></path><path fill="#000000" d="m89.65703 363.59305l0 -2.828125l8.640625 0l0 2.828125l-8.640625 0z" fill-rule="nonzero"></path><path fill="#000000" d="m117.06328 366.92117q-0.21875 1.90625 -0.9375 2.953125q-0.703125 1.046875 -1.71875 1.046875q-0.765625 0 -1.25 -0.859375q-0.484375 -0.875 -0.703125 -2.609375q-0.84375 1.734375 -2.21875 2.609375q-1.375 0.859375 -3.296875 0.859375q-2.640625 0 -4.171875 -2.0625q-1.515625 -2.0625 -1.515625 -5.6875q0 -2.46875 0.75 -4.25q0.765625 -1.796875 2.125 -2.71875q1.359375 -0.9375 2.890625 -0.9375q1.609375 0 2.765625 1.265625q1.15625 1.265625 1.875 3.796875l0.984375 -4.703125l2.6875 0q-1.734375 8.0625 -1.921875 8.765625l-0.546875 1.921875q0 0.03125 0.15625 0.84375q0.171875 0.8125 0.609375 1.34375q0.4375 0.53125 1.15625 0.53125q0.625 0 1.03125 -0.40625q0.421875 -0.40625 0.640625 -1.703125l0.609375 0zm-5.734375 -5.125q-0.90625 -3.09375 -1.875 -4.359375q-0.96875 -1.265625 -2.15625 -1.265625q-1.390625 0 -2.21875 1.8125q-0.828125 1.796875 -0.828125 5.34375q0 3.546875 0.734375 5.078125q0.75 1.515625 2.125 1.515625q1.109375 0 1.96875 -1.15625q0.875 -1.171875 1.671875 -4.53125l0.578125 -2.4375z" fill-rule="nonzero"></path><path fill="#000000" d="m118.65703 382.46805l3.96875 -5.65625l-3.671875 -5.234375l2.3125 0l1.671875 2.546875q0.46875 0.734375 0.75 1.234375q0.453125 -0.6875 0.828125 -1.203125l1.84375 -2.578125l2.203125 0l-3.765625 5.125l4.046875 5.765625l-2.265625 0l-2.234375 -3.390625l-0.59375 -0.90625l-2.859375 4.296875l-2.234375 0z" fill-rule="nonzero"></path><path fill="#000000" d="m88.62578 404.76492l0 -6.28125l-6.234375 0l0 -2.625l6.234375 0l0 -6.234375l2.65625 0l0 6.234375l6.234375 0l0 2.625l-6.234375 0l0 6.28125l-2.65625 0z" fill-rule="nonzero"></path><path fill="#000000" d="m117.06328 404.92117q-0.21875 1.90625 -0.9375 2.953125q-0.703125 1.046875 -1.71875 1.046875q-0.765625 0 -1.25 -0.859375q-0.484375 -0.875 -0.703125 -2.609375q-0.84375 1.734375 -2.21875 2.609375q-1.375 0.859375 -3.296875 0.859375q-2.640625 0 -4.171875 -2.0625q-1.515625 -2.0625 -1.515625 -5.6875q0 -2.46875 0.75 -4.25q0.765625 -1.796875 2.125 -2.71875q1.359375 -0.9375 2.890625 -0.9375q1.609375 0 2.765625 1.265625q1.15625 1.265625 1.875 3.796875l0.984375 -4.703125l2.6875 0q-1.734375 8.0625 -1.921875 8.765625l-0.546875 1.921875q0 0.03125 0.15625 0.84375q0.171875 0.8125 0.609375 1.34375q0.4375 0.53125 1.15625 0.53125q0.625 0 1.03125 -0.40625q0.421875 -0.40625 0.640625 -1.703125l0.609375 0zm-5.734375 -5.125q-0.90625 -3.09375 -1.875 -4.359375q-0.96875 -1.265625 -2.15625 -1.265625q-1.390625 0 -2.21875 1.8125q-0.828125 1.796875 -0.828125 5.34375q0 3.546875 0.734375 5.078125q0.75 1.515625 2.125 1.515625q1.109375 0 1.96875 -1.15625q0.875 -1.171875 1.671875 -4.53125l0.578125 -2.4375z" fill-rule="nonzero"></path><path fill="#000000" d="m119.79765 424.65555l-0.203125 -1.71875q0.609375 0.15625 1.0625 0.15625q0.609375 0 0.96875 -0.203125q0.375 -0.203125 0.625 -0.578125q0.171875 -0.28125 0.5625 -1.375q0.046875 -0.15625 0.15625 -0.453125l-4.125 -10.90625l1.984375 0l2.265625 6.3125q0.4375 1.1875 0.796875 2.515625q0.3125 -1.265625 0.75 -2.484375l2.328125 -6.34375l1.84375 0l-4.140625 11.078125q-0.671875 1.796875 -1.03125 2.46875q-0.5 0.90625 -1.140625 1.328125q-0.625 0.4375 -1.515625 0.4375q-0.53125 0 -1.1875 -0.234375z" fill-rule="nonzero"></path><path fill="#000000" fill-opacity="0.0" d="m497.50244 330.74805l86.17975 0l0 96.409424l-86.17975 0z" fill-rule="nonzero"></path><path fill="#000000" d="m535.1744 363.59305l0 -2.828125l8.640625 0l0 2.828125l-8.640625 0z" fill-rule="nonzero"></path><path fill="#000000" d="m562.5806 366.92117q-0.21875 1.90625 -0.9375 2.953125q-0.703125 1.046875 -1.71875 1.046875q-0.765625 0 -1.25 -0.859375q-0.484375 -0.875 -0.703125 -2.609375q-0.84375 1.734375 -2.21875 2.609375q-1.375 0.859375 -3.296875 0.859375q-2.640625 0 -4.171875 -2.0625q-1.515625 -2.0625 -1.515625 -5.6875q0 -2.46875 0.75 -4.25q0.765625 -1.796875 2.125 -2.71875q1.359375 -0.9375 2.890625 -0.9375q1.609375 0 2.765625 1.265625q1.15625 1.265625 1.875 3.796875l0.984375 -4.703125l2.6875 0q-1.734375 8.0625 -1.921875 8.765625l-0.546875 1.921875q0 0.03125 0.15625 0.84375q0.171875 0.8125 0.609375 1.34375q0.4375 0.53125 1.15625 0.53125q0.625 0 1.03125 -0.40625q0.421875 -0.40625 0.640625 -1.703125l0.609375 0zm-5.734375 -5.125q-0.90625 -3.09375 -1.875 -4.359375q-0.96875 -1.265625 -2.15625 -1.265625q-1.390625 0 -2.21875 1.8125q-0.828125 1.796875 -0.828125 5.34375q0 3.546875 0.734375 5.078125q0.75 1.515625 2.125 1.515625q1.109375 0 1.96875 -1.15625q0.875 -1.171875 1.671875 -4.53125l0.578125 -2.4375z" fill-rule="nonzero"></path><path fill="#000000" d="m564.1744 382.46805l3.96875 -5.65625l-3.671875 -5.234375l2.3125 0l1.671875 2.546875q0.46875 0.734375 0.75 1.234375q0.453125 -0.6875 0.828125 -1.203125l1.84375 -2.578125l2.203125 0l-3.765625 5.125l4.046875 5.765625l-2.265625 0l-2.234375 -3.390625l-0.59375 -0.90625l-2.859375 4.296875l-2.234375 0z" fill-rule="nonzero"></path><path fill="#000000" d="m535.1744 401.59305l0 -2.828125l8.640625 0l0 2.828125l-8.640625 0z" fill-rule="nonzero"></path><path fill="#000000" d="m562.5806 404.92117q-0.21875 1.90625 -0.9375 2.953125q-0.703125 1.046875 -1.71875 1.046875q-0.765625 0 -1.25 -0.859375q-0.484375 -0.875 -0.703125 -2.609375q-0.84375 1.734375 -2.21875 2.609375q-1.375 0.859375 -3.296875 0.859375q-2.640625 0 -4.171875 -2.0625q-1.515625 -2.0625 -1.515625 -5.6875q0 -2.46875 0.75 -4.25q0.765625 -1.796875 2.125 -2.71875q1.359375 -0.9375 2.890625 -0.9375q1.609375 0 2.765625 1.265625q1.15625 1.265625 1.875 3.796875l0.984375 -4.703125l2.6875 0q-1.734375 8.0625 -1.921875 8.765625l-0.546875 1.921875q0 0.03125 0.15625 0.84375q0.171875 0.8125 0.609375 1.34375q0.4375 0.53125 1.15625 0.53125q0.625 0 1.03125 -0.40625q0.421875 -0.40625 0.640625 -1.703125l0.609375 0zm-5.734375 -5.125q-0.90625 -3.09375 -1.875 -4.359375q-0.96875 -1.265625 -2.15625 -1.265625q-1.390625 0 -2.21875 1.8125q-0.828125 1.796875 -0.828125 5.34375q0 3.546875 0.734375 5.078125q0.75 1.515625 2.125 1.515625q1.109375 0 1.96875 -1.15625q0.875 -1.171875 1.671875 -4.53125l0.578125 -2.4375z" fill-rule="nonzero"></path><path fill="#000000" d="m565.315 424.65555l-0.203125 -1.71875q0.609375 0.15625 1.0625 0.15625q0.609375 0 0.96875 -0.203125q0.375 -0.203125 0.625 -0.578125q0.171875 -0.28125 0.5625 -1.375q0.046875 -0.15625 0.15625 -0.453125l-4.125 -10.90625l1.984375 0l2.265625 6.3125q0.4375 1.1875 0.796875 2.515625q0.3125 -1.265625 0.75 -2.484375l2.328125 -6.34375l1.84375 0l-4.140625 11.078125q-0.671875 1.796875 -1.03125 2.46875q-0.5 0.90625 -1.140625 1.328125q-0.625 0.4375 -1.515625 0.4375q-0.53125 0 -1.1875 -0.234375z" fill-rule="nonzero"></path><path fill="#000000" fill-opacity="0.0" d="m40.75753 1.0144367l0.12598419 435.46457" fill-rule="nonzero"></path><path stroke="#000000" stroke-width="4.0" stroke-linejoin="round" stroke-linecap="butt" d="m40.764473 25.014435l0.11903763 411.46457" fill-rule="evenodd"></path><path fill="#000000" stroke="#000000" stroke-width="4.0" stroke-linecap="butt" d="m47.371403 25.012524l-6.6121826 -18.150478l-6.601677 18.1543z" fill-rule="evenodd"></path><path fill="#000000" fill-opacity="0.0" d="m39.74803 431.66928l117.95276 0l0 39.748047l-117.95276 0z" fill-rule="nonzero"></path><path fill="#000000" d="m50.21678 458.5893l0 -13.59375l5.125 0q1.359375 0 2.078125 0.125q1.0 0.171875 1.671875 0.640625q0.671875 0.46875 1.078125 1.3125q0.421875 0.84375 0.421875 1.84375q0 1.734375 -1.109375 2.9375q-1.09375 1.203125 -3.984375 1.203125l-3.484375 0l0 5.53125l-1.796875 0zm1.796875 -7.140625l3.515625 0q1.75 0 2.46875 -0.640625q0.734375 -0.65625 0.734375 -1.828125q0 -0.859375 -0.4375 -1.46875q-0.421875 -0.609375 -1.125 -0.796875q-0.453125 -0.125 -1.671875 -0.125l-3.484375 0l0 4.859375zm10.443573 -4.546875l0 -1.90625l1.671875 0l0 1.90625l-1.671875 0zm0 11.6875l0 -9.859375l1.671875 0l0 9.859375l-1.671875 0zm3.0198212 0l3.59375 -5.125l-3.328125 -4.734375l2.09375 0l1.515625 2.3125q0.421875 0.65625 0.671875 1.109375q0.421875 -0.609375 0.765625 -1.09375l1.65625 -2.328125l1.984375 0l-3.390625 4.640625l3.65625 5.21875l-2.046875 0l-2.03125 -3.0625l-0.53125 -0.828125l-2.59375 3.890625l-2.015625 0zm17.1875 -3.171875l1.71875 0.21875q-0.40625 1.5 -1.515625 2.34375q-1.09375 0.828125 -2.8125 0.828125q-2.15625 0 -3.421875 -1.328125q-1.265625 -1.328125 -1.265625 -3.734375q0 -2.484375 1.265625 -3.859375q1.28125 -1.375 3.328125 -1.375q1.984375 0 3.234375 1.34375q1.25 1.34375 1.25 3.796875q0 0.140625 -0.015625 0.4375l-7.34375 0q0.09375 1.625 0.921875 2.484375q0.828125 0.859375 2.0625 0.859375q0.90625 0 1.546875 -0.46875q0.65625 -0.484375 1.046875 -1.546875zm-5.484375 -2.703125l5.5 0q-0.109375 -1.234375 -0.625 -1.859375q-0.796875 -0.96875 -2.078125 -0.96875q-1.140625 0 -1.9375 0.78125q-0.78125 0.765625 -0.859375 2.046875zm9.078842 5.875l0 -13.59375l1.671875 0l0 13.59375l-1.671875 0zm3.8479462 -6.625q0 -3.390625 1.8125 -5.296875q1.828125 -1.921875 4.703125 -1.921875q1.875 0 3.390625 0.90625q1.515625 0.890625 2.296875 2.5q0.796875 1.609375 0.796875 3.65625q0 2.0625 -0.84375 3.703125q-0.828125 1.625 -2.359375 2.46875q-1.53125 0.84375 -3.296875 0.84375q-1.921875 0 -3.4375 -0.921875q-1.5 -0.9375 -2.28125 -2.53125q-0.78125 -1.609375 -0.78125 -3.40625zm1.859375 0.03125q0 2.453125 1.3125 3.875q1.328125 1.40625 3.3125 1.40625q2.03125 0 3.34375 -1.421875q1.3125 -1.4375 1.3125 -4.0625q0 -1.65625 -0.5625 -2.890625q-0.546875 -1.234375 -1.640625 -1.921875q-1.078125 -0.6875 -2.421875 -0.6875q-1.90625 0 -3.28125 1.3125q-1.375 1.3125 -1.375 4.390625zm13.386429 6.59375l0 -8.546875l-1.484375 0l0 -1.3125l1.484375 0l0 -1.046875q0 -0.984375 0.171875 -1.46875q0.234375 -0.65625 0.84375 -1.046875q0.609375 -0.40625 1.703125 -0.40625q0.703125 0 1.5625 0.15625l-0.25 1.46875q-0.515625 -0.09375 -0.984375 -0.09375q-0.765625 0 -1.078125 0.328125q-0.3125 0.3125 -0.3125 1.203125l0 0.90625l1.921875 0l0 1.3125l-1.921875 0l0 8.546875l-1.65625 0zm5.183304 0l0 -8.546875l-1.484375 0l0 -1.3125l1.484375 0l0 -1.046875q0 -0.984375 0.171875 -1.46875q0.234375 -0.65625 0.84375 -1.046875q0.609375 -0.40625 1.703125 -0.40625q0.703125 0 1.5625 0.15625l-0.25 1.46875q-0.515625 -0.09375 -0.984375 -0.09375q-0.765625 0 -1.078125 0.328125q-0.3125 0.3125 -0.3125 1.203125l0 0.90625l1.921875 0l0 1.3125l-1.921875 0l0 8.546875l-1.65625 0zm4.105179 -2.9375l1.65625 -0.265625q0.140625 1.0 0.765625 1.53125q0.640625 0.515625 1.78125 0.515625q1.15625 0 1.703125 -0.46875q0.5625 -0.46875 0.5625 -1.09375q0 -0.5625 -0.484375 -0.890625q-0.34375 -0.21875 -1.703125 -0.5625q-1.84375 -0.46875 -2.5625 -0.796875q-0.703125 -0.34375 -1.078125 -0.9375q-0.359375 -0.609375 -0.359375 -1.328125q0 -0.65625 0.296875 -1.21875q0.3125 -0.5625 0.828125 -0.9375q0.390625 -0.28125 1.0625 -0.484375q0.671875 -0.203125 1.4375 -0.203125q1.171875 0 2.046875 0.34375q0.875 0.328125 1.28125 0.90625q0.421875 0.5625 0.578125 1.515625l-1.625 0.21875q-0.109375 -0.75 -0.65625 -1.171875q-0.53125 -0.4375 -1.5 -0.4375q-1.15625 0 -1.640625 0.390625q-0.484375 0.375 -0.484375 0.875q0 0.328125 0.203125 0.59375q0.203125 0.265625 0.640625 0.4375q0.25 0.09375 1.46875 0.4375q1.765625 0.46875 2.46875 0.765625q0.703125 0.296875 1.09375 0.875q0.40625 0.578125 0.40625 1.4375q0 0.828125 -0.484375 1.578125q-0.484375 0.734375 -1.40625 1.140625q-0.921875 0.390625 -2.078125 0.390625q-1.921875 0 -2.9375 -0.796875q-1.0 -0.796875 -1.28125 -2.359375zm16.75 -0.234375l1.71875 0.21875q-0.40625 1.5 -1.515625 2.34375q-1.09375 0.828125 -2.8125 0.828125q-2.15625 0 -3.421875 -1.328125q-1.265625 -1.328125 -1.265625 -3.734375q0 -2.484375 1.265625 -3.859375q1.28125 -1.375 3.328125 -1.375q1.984375 0 3.234375 1.34375q1.25 1.34375 1.25 3.796875q0 0.140625 -0.015625 0.4375l-7.34375 0q0.09375 1.625 0.921875 2.484375q0.828125 0.859375 2.0625 0.859375q0.90625 0 1.546875 -0.46875q0.65625 -0.484375 1.046875 -1.546875zm-5.484375 -2.703125l5.5 0q-0.109375 -1.234375 -0.625 -1.859375q-0.796875 -0.96875 -2.078125 -0.96875q-1.140625 0 -1.9375 0.78125q-0.78125 0.765625 -0.859375 2.046875zm12.766342 4.375l0.234375 1.484375q-0.703125 0.140625 -1.265625 0.140625q-0.90625 0 -1.40625 -0.28125q-0.5 -0.296875 -0.703125 -0.75q-0.203125 -0.46875 -0.203125 -1.984375l0 -5.65625l-1.234375 0l0 -1.3125l1.234375 0l0 -2.4375l1.65625 -1.0l0 3.4375l1.6875 0l0 1.3125l-1.6875 0l0 5.75q0 0.71875 0.078125 0.921875q0.09375 0.203125 0.296875 0.328125q0.203125 0.125 0.578125 0.125q0.265625 0 0.734375 -0.078125z" fill-rule="nonzero"></path><path fill="#000000" d="m138.99715 465.5893l3.328125 -4.484375l-2.921875 -4.109375l1.34375 0l1.5625 2.203125q0.484375 0.6875 0.6875 1.0625q0.296875 -0.46875 0.6875 -0.984375l1.71875 -2.28125l1.234375 0l-3.015625 4.046875l3.25 4.546875l-1.40625 0l-2.15625 -3.0625q-0.1875 -0.265625 -0.375 -0.578125q-0.28125 0.46875 -0.40625 0.640625l-2.15625 3.0l-1.375 0z" fill-rule="nonzero"></path><path fill="#000000" fill-opacity="0.0" d="m0 434.80316l0 -118.26773l39.74803 0l0 118.26773z" fill-rule="nonzero"></path><path fill="#000000" d="m26.919998 424.3344l-13.59375 0l0 -5.125q0 -1.359375 0.125 -2.078125q0.171875 -1.0 0.640625 -1.671875q0.46875 -0.671875 1.3125 -1.078125q0.84375 -0.421875 1.84375 -0.421875q1.734375 0 2.9375 1.109375q1.203125 1.09375 1.203125 3.984375l0 3.484375l5.53125 0l0 1.796875zm-7.140625 -1.796875l0 -3.515625q0 -1.75 -0.640625 -2.46875q-0.65625 -0.734375 -1.828125 -0.734375q-0.859375 0 -1.46875 0.4375q-0.609375 0.421875 -0.796875 1.125q-0.125 0.453125 -0.125 1.671875l0 3.484375l4.859375 0zm-4.546875 -10.443573l-1.90625 0l0 -1.671875l1.90625 0l0 1.671875zm11.6875 0l-9.859375 0l0 -1.671875l9.859375 0l0 1.671875zm0 -3.0198364l-5.125 -3.59375l-4.734375 3.328125l0 -2.09375l2.3125 -1.515625q0.65625 -0.421875 1.109375 -0.671875q-0.609375 -0.421875 -1.09375 -0.765625l-2.328125 -1.65625l0 -1.984375l4.640625 3.390625l5.21875 -3.65625l0 2.046875l-3.0625 2.03125l-0.828125 0.53125l3.890625 2.59375l0 2.015625zm-3.171875 -17.1875l0.21875 -1.71875q1.5 0.40625 2.34375 1.515625q0.828125 1.09375 0.828125 2.8125q0 2.15625 -1.328125 3.421875q-1.328125 1.265625 -3.734375 1.265625q-2.484375 0 -3.859375 -1.265625q-1.375 -1.28125 -1.375 -3.328125q0 -1.984375 1.34375 -3.234375q1.34375 -1.25 3.796875 -1.25q0.140625 0 0.4375 0.015625l0 7.34375q1.625 -0.09375 2.484375 -0.921875q0.859375 -0.828125 0.859375 -2.0625q0 -0.90625 -0.46875 -1.546875q-0.484375 -0.65625 -1.546875 -1.046875zm-2.703125 5.484375l0 -5.5q-1.234375 0.109375 -1.859375 0.625q-0.96875 0.796875 -0.96875 2.078125q0 1.140625 0.78125 1.9375q0.765625 0.78125 2.046875 0.859375zm5.875 -9.078827l-13.59375 0l0 -1.671875l13.59375 0l0 1.671875zm-6.625 -3.8479614q-3.390625 0 -5.296875 -1.8125q-1.921875 -1.828125 -1.921875 -4.703125q0 -1.875 0.90625 -3.390625q0.890625 -1.515625 2.5 -2.296875q1.609375 -0.796875 3.65625 -0.796875q2.0625 0 3.703125 0.84375q1.625 0.828125 2.46875 2.359375q0.84375 1.53125 0.84375 3.296875q0 1.921875 -0.921875 3.4375q-0.9375 1.5 -2.53125 2.28125q-1.609375 0.78125 -3.40625 0.78125zm0.03125 -1.859375q2.453125 0 3.875 -1.3125q1.40625 -1.328125 1.40625 -3.3125q0 -2.03125 -1.421875 -3.34375q-1.4375 -1.3125 -4.0625 -1.3125q-1.65625 0 -2.890625 0.5625q-1.234375 0.546875 -1.921875 1.640625q-0.6875 1.078125 -0.6875 2.421875q0 1.90625 1.3125 3.28125q1.3125 1.375 4.390625 1.375zm6.59375 -13.386414l-8.546875 0l0 1.484375l-1.3125 0l0 -1.484375l-1.046875 0q-0.984375 0 -1.46875 -0.171875q-0.65625 -0.234375 -1.046875 -0.84375q-0.40625 -0.609375 -0.40625 -1.703125q0 -0.703125 0.15625 -1.5625l1.46875 0.25q-0.09375 0.515625 -0.09375 0.984375q0 0.765625 0.328125 1.078125q0.3125 0.3125 1.203125 0.3125l0.90625 0l0 -1.921875l1.3125 0l0 1.921875l8.546875 0l0 1.65625zm0 -5.183319l-8.546875 0l0 1.484375l-1.3125 0l0 -1.484375l-1.046875 0q-0.984375 0 -1.46875 -0.171875q-0.65625 -0.234375 -1.046875 -0.84375q-0.40625 -0.609375 -0.40625 -1.703125q0 -0.703125 0.15625 -1.5625l1.46875 0.25q-0.09375 0.515625 -0.09375 0.984375q0 0.765625 0.328125 1.078125q0.3125 0.3125 1.203125 0.3125l0.90625 0l0 -1.921875l1.3125 0l0 1.921875l8.546875 0l0 1.65625zm-2.9375 -4.1051636l-0.265625 -1.65625q1.0 -0.140625 1.53125 -0.765625q0.515625 -0.640625 0.515625 -1.78125q0 -1.15625 -0.46875 -1.703125q-0.46875 -0.5625 -1.09375 -0.5625q-0.5625 0 -0.890625 0.484375q-0.21875 0.34375 -0.5625 1.703125q-0.46875 1.84375 -0.796875 2.5625q-0.34375 0.703125 -0.9375 1.078125q-0.609375 0.359375 -1.328125 0.359375q-0.65625 0 -1.21875 -0.296875q-0.5625 -0.3125 -0.9375 -0.828125q-0.28125 -0.390625 -0.484375 -1.0625q-0.203125 -0.671875 -0.203125 -1.4375q0 -1.171875 0.34375 -2.046875q0.328125 -0.875 0.90625 -1.28125q0.5625 -0.421875 1.515625 -0.578125l0.21875 1.625q-0.75 0.109375 -1.171875 0.65625q-0.4375 0.53125 -0.4375 1.5q0 1.15625 0.390625 1.640625q0.375 0.484375 0.875 0.484375q0.328125 0 0.59375 -0.203125q0.265625 -0.203125 0.4375 -0.640625q0.09375 -0.25 0.4375 -1.46875q0.46875 -1.765625 0.765625 -2.46875q0.296875 -0.703125 0.875 -1.09375q0.578125 -0.40625 1.4375 -0.40625q0.828125 0 1.578125 0.484375q0.734375 0.484375 1.140625 1.40625q0.390625 0.921875 0.390625 2.078125q0 1.921875 -0.796875 2.9375q-0.796875 1.0 -2.359375 1.28125zm-0.234375 -16.75l0.21875 -1.71875q1.5 0.40625 2.34375 1.515625q0.828125 1.09375 0.828125 2.8125q0 2.15625 -1.328125 3.421875q-1.328125 1.265625 -3.734375 1.265625q-2.484375 0 -3.859375 -1.265625q-1.375 -1.28125 -1.375 -3.328125q0 -1.984375 1.34375 -3.234375q1.34375 -1.25 3.796875 -1.25q0.140625 0 0.4375 0.015625l0 7.34375q1.625 -0.09375 2.484375 -0.921875q0.859375 -0.828125 0.859375 -2.0625q0 -0.90625 -0.46875 -1.546875q-0.484375 -0.65625 -1.546875 -1.046875zm-2.703125 5.484375l0 -5.5q-1.234375 0.109375 -1.859375 0.625q-0.96875 0.796875 -0.96875 2.078125q0 1.140625 0.78125 1.9375q0.765625 0.78125 2.046875 0.859375zm4.375 -12.766357l1.484375 -0.234375q0.140625 0.703125 0.140625 1.265625q0 0.90625 -0.28125 1.40625q-0.296875 0.5 -0.75 0.703125q-0.46875 0.203125 -1.984375 0.203125l-5.65625 0l0 1.234375l-1.3125 0l0 -1.234375l-2.4375 0l-1.0 -1.65625l3.4375 0l0 -1.6875l1.3125 0l0 1.6875l5.75 0q0.71875 0 0.921875 -0.078125q0.203125 -0.09375 0.328125 -0.296875q0.125 -0.203125 0.125 -0.578125q0 -0.265625 -0.078125 -0.734375z" fill-rule="nonzero"></path><path fill="#000000" d="m36.310623 334.85092l-0.984375 0.125q0.09375 -0.34375 0.09375 -0.609375q0 -0.34375 -0.125 -0.546875q-0.109375 -0.21875 -0.3125 -0.359375q-0.171875 -0.09375 -0.796875 -0.328125q-0.078125 -0.015625 -0.25 -0.09375l-6.234375 2.375l0 -1.140625l3.59375 -1.296875q0.6875 -0.25 1.453125 -0.453125q-0.734375 -0.1875 -1.421875 -0.4375l-3.625 -1.328125l0 -1.046875l6.328125 2.359375q1.015625 0.390625 1.40625 0.59375q0.53125 0.28125 0.765625 0.65625q0.25 0.359375 0.25 0.859375q0 0.296875 -0.140625 0.671875z" fill-rule="nonzero"></path></g></svg>

